<?xml version="1.0" encoding="UTF-8" standalone="no"?>
<!-- Created with Inkscape (http://www.inkscape.org/) -->

<svg
   xmlns:dc="http://purl.org/dc/elements/1.1/"
   xmlns:cc="http://creativecommons.org/ns#"
   xmlns:rdf="http://www.w3.org/1999/02/22-rdf-syntax-ns#"
   xmlns:svg="http://www.w3.org/2000/svg"
   xmlns="http://www.w3.org/2000/svg"
   xmlns:sodipodi="http://sodipodi.sourceforge.net/DTD/sodipodi-0.dtd"
   xmlns:inkscape="http://www.inkscape.org/namespaces/inkscape"
   width="210mm"
   height="297mm"
   viewBox="0 0 210 297"
   version="1.1"
   id="svg8"
   inkscape:version="0.92.4 (5da689c313, 2019-01-14)"
   sodipodi:docname="icon.svg">
  <defs
     id="defs2" />
  <sodipodi:namedview
     id="base"
     pagecolor="#ffffff"
     bordercolor="#666666"
     borderopacity="1.0"
     inkscape:pageopacity="0.0"
     inkscape:pageshadow="2"
     inkscape:zoom="0.35"
     inkscape:cx="-85.714286"
     inkscape:cy="560"
     inkscape:document-units="mm"
     inkscape:current-layer="layer1"
     showgrid="false"
     inkscape:window-width="1920"
     inkscape:window-height="1027"
     inkscape:window-x="1912"
     inkscape:window-y="-8"
     inkscape:window-maximized="1" />
  <metadata
     id="metadata5">
    <rdf:RDF>
      <cc:Work
         rdf:about="">
        <dc:format>image/svg+xml</dc:format>
        <dc:type
           rdf:resource="http://purl.org/dc/dcmitype/StillImage" />
        <dc:title />
      </cc:Work>
    </rdf:RDF>
  </metadata>
  <g
     inkscape:label="Ebene 1"
     inkscape:groupmode="layer"
     id="layer1">
    <path
       id="path3713"
       d="m 138.8629,24.705952 c -33.05864,0 -62.598397,22.08065 -62.598397,52.280161 0,10.710393 3.85394,21.23913 10.68174,29.386687 0.28914,9.57243 -5.33617,23.28555 -10.40452,33.26918 13.56993,-2.46713 32.877207,-7.87981 41.617697,-13.24457 7.38258,1.79776 14.4782,2.62038 21.1625,2.62038 36.96066,0 62.13939,-25.27465 62.13939,-52.041074 0,-30.342963 -29.74035,-52.270619 -62.59841,-52.270619 z m -22.07114,64.606692 c -1.98064,1.578008 -4.76221,2.37171 -8.31002,2.37171 -3.03964,0 -5.75687,-0.583349 -8.09027,-1.759446 l 1.30838,-5.183101 c 2.37099,1.195253 4.75282,1.797758 7.19139,1.797758 1.39512,0 2.48665,-0.256616 3.27095,-0.793702 1.51078,-1.023212 1.60475,-3.08879 0.10843,-4.265031 -0.7084,-0.554796 -1.92281,-1.128387 -3.6819,-1.711737 -5.25014,-1.750049 -7.86076,-4.475419 -7.86076,-8.204953 0,-2.410022 0.97586,-4.389326 2.89868,-5.948106 1.92281,-1.558852 4.50415,-2.333398 7.71727,-2.333398 2.80109,0 5.23063,0.468414 7.34428,1.424761 l -1.43488,5.010951 c -1.90113,-0.898879 -3.92081,-1.33874 -5.99614,-1.33874 -1.27224,0 -2.26617,0.249387 -2.98542,0.736235 -1.43488,0.975502 -1.39513,2.725551 -0.18072,3.767773 0.59275,0.506726 2.03847,1.176096 4.35127,1.988955 2.54447,0.898879 4.38922,2.00811 5.58483,3.337453 1.17465,1.329344 1.76017,2.974216 1.76017,4.943979 -0.0192,2.524595 -1.01562,4.580632 -3.01072,6.158495 z m 31.74882,1.92209 C 148.09964,80.32353 147.90085,72.921857 147.90085,69.03933 h -0.14457 c -0.66142,2.926145 -2.89868,10.174896 -6.68431,21.745965 h -4.93462 c -2.27701,-7.975445 -5.64193,-21.736387 -5.64193,-21.736387 h -0.0723 l -0.97586,22.195404 h -5.88121 l 1.76017,-27.493224 h 8.55869 l 4.85799,18.963128 5.86205,-18.963128 h 8.66386 l 1.47464,27.493224 h -6.20649 z m 26.60385,-1.797758 c -1.99871,1.597164 -4.82908,2.400264 -8.4058,2.400264 -2.9059,0 -5.64194,-0.516485 -8.25255,-1.816914 l 1.38789,-5.489088 c 2.29509,1.176096 4.64764,1.864622 7.27742,1.864622 1.3662,0 2.43965,-0.256616 3.1842,-0.774547 1.44211,-0.975502 1.49994,-2.916748 0.10843,-4.016401 -0.69756,-0.545038 -1.91197,-1.109232 -3.62443,-1.692582 -5.30725,-1.759446 -7.99449,-4.561512 -7.99449,-8.338827 0,-2.438575 1.00478,-4.484997 2.97458,-6.06286 1.94088,-1.578008 4.57101,-2.37171 7.79353,-2.37171 2.81194,0 5.29786,0.478173 7.40175,1.434519 l 0.10843,0.05783 -1.51078,5.316903 c -1.93005,-0.908637 -3.86334,-1.405605 -6.09156,-1.405605 -1.23248,0 -2.21919,0.238544 -2.91675,0.707682 -1.34814,0.918035 -1.33007,2.553148 -0.14457,3.528651 0.5819,0.48757 2.02763,1.15694 4.2938,1.960401 2.56254,0.898879 4.45644,2.037025 5.6423,3.375766 1.19633,1.357896 1.80715,3.04108 1.80715,5.039613 0,2.562907 -1.02285,4.676266 -3.03963,6.282827 z m -69.31162,62.617594 v 44.78289 H 29.329803 v -95.6286 h 32.6477 c -4.858,-12.039668 -6.28276,-24.99733 -3.23119,-38.251474 h -29.41543 c -10.56679,0 -19.12548,8.568336 -19.12548,19.125735 V 222.44679 c -0.0191,21.16262 23.93577,31.76784 57.43464,31.76784 33.450797,0 57.319697,-10.57652 57.319697,-31.76784 v -77.15315 c -5.97699,3.27999 -11.36086,5.2213 -19.12584,6.76093 z m -38.251317,83.03432 c -5.28846,0 -9.56311,-4.28415 -9.56311,-9.56285 0,-5.2787 4.27465,-9.56285 9.56311,-9.56285 5.28809,0 9.56274,4.28415 9.56274,9.56285 0,5.2787 -4.27465,9.56285 -9.56274,9.56285 z"
       inkscape:connector-curvature="0"
       style="fill:#e20074;fill-opacity:1;stroke-width:9.56286144" />
    <path
       style="stroke-width:2.85714293;fill:#e20074;opacity:0;fill-opacity:1"
       d="m -1547.1429,928.6144 c -44.0376,-6.98529 -70.652,-16.3242 -98.5714,-34.58849 -19.453,-12.7258 -26.2198,-20.1838 -37.4794,-41.30817 l -6.8063,-12.76948 -0.7689,-282.77077 c -0.8352,-307.14506 -1.3847,-295.42217 14.8462,-316.70202 4.0296,-5.28307 14.0821,-13.34866 22.3389,-17.92354 l 15.0124,-8.31796 63.7015,-0.95346 63.7016,-0.95346 -2.273,15.23917 c -5.4746,36.70411 0.01,92.60181 12.0743,123.09632 1.8473,4.66868 -2.1125,5 -59.7559,5 h -61.7342 v 181.42857 181.42858 h 145.7142 145.7143 v -83.93838 -83.93834 l 18.55,-4.6596 c 10.2025,-2.5628 25.791,-7.86194 34.6412,-11.77594 8.8502,-3.91397 16.6164,-7.11632 17.2582,-7.11632 0.6418,0 0.8033,69.75 0.3588,155 l -0.8082,155 -7.8919,16.07012 c -19.579,39.86843 -69.2304,66.41728 -143.5366,76.74988 -27.662,3.84652 -106.6709,3.08358 -134.2858,-1.29671 z m 87.0325,-68.60906 c 13.5091,-6.98583 20.123,-17.75668 20.0092,-32.58525 -0.1205,-15.68446 -4.4497,-24.42489 -15.8057,-31.91086 -19.2072,-12.66146 -47.7917,-2.94594 -54.9137,18.66448 -4.5446,13.78975 -2.3538,24.68986 7.2582,36.11309 11.9078,14.15157 27.9437,17.7382 43.452,9.71854 z"
       id="path3724"
       inkscape:connector-curvature="0"
       transform="scale(0.26458333)" />
    <path
       style="opacity:0;fill:#e20074;fill-opacity:1;stroke-width:2.85714293"
       d="m -1547.1429,928.6144 c -44.0376,-6.98529 -70.652,-16.3242 -98.5714,-34.58849 -19.453,-12.7258 -26.2198,-20.1838 -37.4794,-41.30817 l -6.8063,-12.76948 -0.7689,-282.77077 c -0.8352,-307.14506 -1.3847,-295.42217 14.8462,-316.70202 4.0296,-5.28307 14.0821,-13.34866 22.3389,-17.92354 l 15.0124,-8.31796 63.7015,-0.95346 63.7016,-0.95346 -2.273,15.23917 c -5.4746,36.70411 0.01,92.60181 12.0743,123.09632 1.8473,4.66868 -2.1125,5 -59.7559,5 h -61.7342 v 181.42857 181.42858 h 145.7142 145.7143 v -83.93838 -83.93834 l 18.55,-4.6596 c 10.2025,-2.5628 25.791,-7.86194 34.6412,-11.77594 8.8502,-3.91397 16.6164,-7.11632 17.2582,-7.11632 0.6418,0 0.8033,69.75 0.3588,155 l -0.8082,155 -7.8919,16.07012 c -19.579,39.86843 -69.2304,66.41728 -143.5366,76.74988 -27.662,3.84652 -106.6709,3.08358 -134.2858,-1.29671 z m 87.0325,-68.60906 c 13.5091,-6.98583 20.123,-17.75668 20.0092,-32.58525 -0.1205,-15.68446 -4.4497,-24.42489 -15.8057,-31.91086 -19.2072,-12.66146 -47.7917,-2.94594 -54.9137,18.66448 -4.5446,13.78975 -2.3538,24.68986 7.2582,36.11309 11.9078,14.15157 27.9437,17.7382 43.452,9.71854 z"
       id="path4531"
       inkscape:connector-curvature="0"
       transform="scale(0.26458333)" />
    <path
       style="opacity:0;fill:#e20074;fill-opacity:1;stroke-width:2.85714293"
       d="m -1547.1429,928.6144 c -44.0376,-6.98529 -70.652,-16.3242 -98.5714,-34.58849 -19.453,-12.7258 -26.2198,-20.1838 -37.4794,-41.30817 l -6.8063,-12.76948 -0.7689,-282.77077 c -0.8352,-307.14506 -1.3847,-295.42217 14.8462,-316.70202 4.0296,-5.28307 14.0821,-13.34866 22.3389,-17.92354 l 15.0124,-8.31796 63.7015,-0.95346 63.7016,-0.95346 -2.273,15.23917 c -5.4746,36.70411 0.01,92.60181 12.0743,123.09632 1.8473,4.66868 -2.1125,5 -59.7559,5 h -61.7342 v 181.42857 181.42858 h 145.7142 145.7143 v -83.93838 -83.93834 l 18.55,-4.6596 c 10.2025,-2.5628 25.791,-7.86194 34.6412,-11.77594 8.8502,-3.91397 16.6164,-7.11632 17.2582,-7.11632 0.6418,0 0.8033,69.75 0.3588,155 l -0.8082,155 -7.8919,16.07012 c -19.579,39.86843 -69.2304,66.41728 -143.5366,76.74988 -27.662,3.84652 -106.6709,3.08358 -134.2858,-1.29671 z m 87.0325,-68.60906 c 13.5091,-6.98583 20.123,-17.75668 20.0092,-32.58525 -0.1205,-15.68446 -4.4497,-24.42489 -15.8057,-31.91086 -19.2072,-12.66146 -47.7917,-2.94594 -54.9137,18.66448 -4.5446,13.78975 -2.3538,24.68986 7.2582,36.11309 11.9078,14.15157 27.9437,17.7382 43.452,9.71854 z"
       id="path4533"
       inkscape:connector-curvature="0"
       transform="scale(0.26458333)" />
    <path
       style="opacity:0;fill:#e20074;fill-opacity:1;stroke-width:2.85714293"
       d="m -1547.1429,928.6144 c -44.0376,-6.98529 -70.652,-16.3242 -98.5714,-34.58849 -19.453,-12.7258 -26.2198,-20.1838 -37.4794,-41.30817 l -6.8063,-12.76948 -0.7689,-282.77077 c -0.8352,-307.14506 -1.3847,-295.42217 14.8462,-316.70202 4.0296,-5.28307 14.0821,-13.34866 22.3389,-17.92354 l 15.0124,-8.31796 63.7015,-0.95346 63.7016,-0.95346 -2.273,15.23917 c -5.4746,36.70411 0.01,92.60181 12.0743,123.09632 1.8473,4.66868 -2.1125,5 -59.7559,5 h -61.7342 v 181.42857 181.42858 h 145.7142 145.7143 v -83.93838 -83.93834 l 18.55,-4.6596 c 10.2025,-2.5628 25.791,-7.86194 34.6412,-11.77594 8.8502,-3.91397 16.6164,-7.11632 17.2582,-7.11632 0.6418,0 0.8033,69.75 0.3588,155 l -0.8082,155 -7.8919,16.07012 c -19.579,39.86843 -69.2304,66.41728 -143.5366,76.74988 -27.662,3.84652 -106.6709,3.08358 -134.2858,-1.29671 z m 87.0325,-68.60906 c 13.5091,-6.98583 20.123,-17.75668 20.0092,-32.58525 -0.1205,-15.68446 -4.4497,-24.42489 -15.8057,-31.91086 -19.2072,-12.66146 -47.7917,-2.94594 -54.9137,18.66448 -4.5446,13.78975 -2.3538,24.68986 7.2582,36.11309 11.9078,14.15157 27.9437,17.7382 43.452,9.71854 z"
       id="path4535"
       inkscape:connector-curvature="0"
       transform="scale(0.26458333)" />
    <path
       style="opacity:0;fill:#e20074;fill-opacity:1;stroke-width:2.85714293"
       d="m -1547.1429,928.6144 c -44.0376,-6.98529 -70.652,-16.3242 -98.5714,-34.58849 -19.453,-12.7258 -26.2198,-20.1838 -37.4794,-41.30817 l -6.8063,-12.76948 -0.7689,-282.77077 c -0.8352,-307.14506 -1.3847,-295.42217 14.8462,-316.70202 4.0296,-5.28307 14.0821,-13.34866 22.3389,-17.92354 l 15.0124,-8.31796 63.7015,-0.95346 63.7016,-0.95346 -2.273,15.23917 c -5.4746,36.70411 0.01,92.60181 12.0743,123.09632 1.8473,4.66868 -2.1125,5 -59.7559,5 h -61.7342 v 181.42857 181.42858 h 145.7142 145.7143 v -83.93838 -83.93834 l 18.55,-4.6596 c 10.2025,-2.5628 25.791,-7.86194 34.6412,-11.77594 8.8502,-3.91397 16.6164,-7.11632 17.2582,-7.11632 0.6418,0 0.8033,69.75 0.3588,155 l -0.8082,155 -7.8919,16.07012 c -19.579,39.86843 -69.2304,66.41728 -143.5366,76.74988 -27.662,3.84652 -106.6709,3.08358 -134.2858,-1.29671 z m 87.0325,-68.60906 c 13.5091,-6.98583 20.123,-17.75668 20.0092,-32.58525 -0.1205,-15.68446 -4.4497,-24.42489 -15.8057,-31.91086 -19.2072,-12.66146 -47.7917,-2.94594 -54.9137,18.66448 -4.5446,13.78975 -2.3538,24.68986 7.2582,36.11309 11.9078,14.15157 27.9437,17.7382 43.452,9.71854 z"
       id="path4537"
       inkscape:connector-curvature="0"
       transform="scale(0.26458333)" />
    <path
       style="opacity:0;fill:#e20074;fill-opacity:1;stroke-width:2.85714293"
       d="m -1547.1429,928.6144 c -44.0376,-6.98529 -70.652,-16.3242 -98.5714,-34.58849 -19.453,-12.7258 -26.2198,-20.1838 -37.4794,-41.30817 l -6.8063,-12.76948 -0.7689,-282.77077 c -0.8352,-307.14506 -1.3847,-295.42217 14.8462,-316.70202 4.0296,-5.28307 14.0821,-13.34866 22.3389,-17.92354 l 15.0124,-8.31796 63.7015,-0.95346 63.7016,-0.95346 -2.273,15.23917 c -5.4746,36.70411 0.01,92.60181 12.0743,123.09632 1.8473,4.66868 -2.1125,5 -59.7559,5 h -61.7342 v 181.42857 181.42858 h 145.7142 145.7143 v -83.93838 -83.93834 l 18.55,-4.6596 c 10.2025,-2.5628 25.791,-7.86194 34.6412,-11.77594 8.8502,-3.91397 16.6164,-7.11632 17.2582,-7.11632 0.6418,0 0.8033,69.75 0.3588,155 l -0.8082,155 -7.8919,16.07012 c -19.579,39.86843 -69.2304,66.41728 -143.5366,76.74988 -27.662,3.84652 -106.6709,3.08358 -134.2858,-1.29671 z m 87.0325,-68.60906 c 13.5091,-6.98583 20.123,-17.75668 20.0092,-32.58525 -0.1205,-15.68446 -4.4497,-24.42489 -15.8057,-31.91086 -19.2072,-12.66146 -47.7917,-2.94594 -54.9137,18.66448 -4.5446,13.78975 -2.3538,24.68986 7.2582,36.11309 11.9078,14.15157 27.9437,17.7382 43.452,9.71854 z"
       id="path4539"
       inkscape:connector-curvature="0"
       transform="scale(0.26458333)" />
    <path
       style="opacity:0;fill:#e20074;fill-opacity:1;stroke-width:2.85714293"
       d="m -1547.1429,928.6144 c -44.0376,-6.98529 -70.652,-16.3242 -98.5714,-34.58849 -19.453,-12.7258 -26.2198,-20.1838 -37.4794,-41.30817 l -6.8063,-12.76948 -0.7689,-282.77077 c -0.8352,-307.14506 -1.3847,-295.42217 14.8462,-316.70202 4.0296,-5.28307 14.0821,-13.34866 22.3389,-17.92354 l 15.0124,-8.31796 63.7015,-0.95346 63.7016,-0.95346 -2.273,15.23917 c -5.4746,36.70411 0.01,92.60181 12.0743,123.09632 1.8473,4.66868 -2.1125,5 -59.7559,5 h -61.7342 v 181.42857 181.42858 h 145.7142 145.7143 v -83.93838 -83.93834 l 18.55,-4.6596 c 10.2025,-2.5628 25.791,-7.86194 34.6412,-11.77594 8.8502,-3.91397 16.6164,-7.11632 17.2582,-7.11632 0.6418,0 0.8033,69.75 0.3588,155 l -0.8082,155 -7.8919,16.07012 c -19.579,39.86843 -69.2304,66.41728 -143.5366,76.74988 -27.662,3.84652 -106.6709,3.08358 -134.2858,-1.29671 z m 87.0325,-68.60906 c 13.5091,-6.98583 20.123,-17.75668 20.0092,-32.58525 -0.1205,-15.68446 -4.4497,-24.42489 -15.8057,-31.91086 -19.2072,-12.66146 -47.7917,-2.94594 -54.9137,18.66448 -4.5446,13.78975 -2.3538,24.68986 7.2582,36.11309 11.9078,14.15157 27.9437,17.7382 43.452,9.71854 z"
       id="path4541"
       inkscape:connector-curvature="0"
       transform="scale(0.26458333)" />
  </g>
</svg>
